<?xml version="1.0" encoding="iso-8859-1"?>
<!-- Generator: Adobe Illustrator 16.0.0, SVG Export Plug-In . SVG Version: 6.00 Build 0)  -->
<!DOCTYPE svg PUBLIC "-//W3C//DTD SVG 1.1//EN" "http://www.w3.org/Graphics/SVG/1.1/DTD/svg11.dtd">
<svg version="1.1" id="Capa_1" xmlns="http://www.w3.org/2000/svg" xmlns:xlink="http://www.w3.org/1999/xlink" x="0px" y="0px"
	 width="59.403px" height="59.403px" viewBox="0 0 59.403 59.403" style="enable-background:new 0 0 59.403 59.403;"
	 xml:space="preserve">
<g>
	<g>
		<path d="M29.702,43.496c14.917,0,27.008-7.863,27.008-17.563c0-3.799-1.859-7.313-5.012-10.186
			c0.785,2.457,1.222,5.042,1.222,7.677c0,7.972-8.353,14.175-20.312,15.085c-0.026,0.002-0.053,0.002-0.079,0.002
			c-0.54,0-0.997-0.415-1.038-0.963c-0.01-0.122,0.013-0.236,0.043-0.35c0.113-0.413,0.465-0.732,0.918-0.767
			c10.825-0.824,18.388-6.173,18.388-13.008c0-3.38-0.849-6.881-2.367-10.116C45.022,5.962,38.101,0,29.702,0
			s-15.32,5.962-18.769,13.31c-1.519,3.234-2.366,6.735-2.366,10.116c0,2.784,1.291,5.411,3.736,7.598
			c0.303,0.271,0.399,0.679,0.301,1.046c-0.041,0.151-0.106,0.299-0.219,0.425c-0.383,0.428-1.042,0.465-1.471,0.082
			c-2.899-2.592-4.431-5.756-4.431-9.15c0-2.635,0.437-5.22,1.222-7.677c-3.152,2.873-5.013,6.386-5.013,10.185
			C2.692,35.633,14.785,43.496,29.702,43.496z"/>
		<path d="M19.294,53.108c1.999,0.078,1.991-3.019,0-3.098c-2.846-0.113-5.789,0.974-6.017,4.175
			c-0.173,2.423,2.003,4.8,4.319,5.157c3.111,0.48,5.783-2.047,6.524-4.909c0.36-1.394,0.243-2.86,0.358-4.279
			c0.121-1.482,1.901-1.082,2.973-0.97c1.986,0.204,1.967-2.896,0-3.099c-2.454-0.254-4.889,0.122-5.83,2.673
			c-0.757,2.057,0.141,4.322-1.1,6.266c-0.924,1.447-2.845,1.763-3.82,0.273C15.461,53.395,17.898,53.051,19.294,53.108z"/>
		<path d="M39.028,55.025c-1.24-1.943-0.343-4.209-1.1-6.264c-0.94-2.553-3.374-2.929-5.829-2.675c-1.967,0.203-1.986,3.303,0,3.098
			c1.071-0.11,2.852-0.513,2.973,0.971c0.116,1.42-0.001,2.887,0.358,4.28c0.74,2.862,3.412,5.39,6.524,4.909
			c2.315-0.358,4.491-2.734,4.318-5.159c-0.229-3.201-3.17-4.288-6.018-4.175c-1.989,0.079-1.998,3.178,0,3.099
			c1.397-0.056,3.834,0.286,2.59,2.188C41.874,56.787,39.953,56.473,39.028,55.025z"/>
	</g>
</g>
<g>
</g>
<g>
</g>
<g>
</g>
<g>
</g>
<g>
</g>
<g>
</g>
<g>
</g>
<g>
</g>
<g>
</g>
<g>
</g>
<g>
</g>
<g>
</g>
<g>
</g>
<g>
</g>
<g>
</g>
</svg>
